<svg width="50" height="44" viewBox="0 0 50 44" fill="none" xmlns="http://www.w3.org/2000/svg">
<g clip-path="url(#clip0_2342_2)">
<path d="M38.2769 35.8126V40.5343H11.6423V18.9143H7.99249L14.2201 13.4433V6.8266H16.0417V11.8431L24.9596 4.0093L36.6722 14.2979H41.2358L24.9596 0L19.0538 5.18774V3.81448H11.2085V12.0801L0 21.9264H8.63016V43.5465H41.289V35.8126H38.2769Z" fill="#2F85B7"/>
<path d="M16.9505 18.6351H24.4188V20.9473H19.6117V24.1401H23.9604V26.4518H19.6117V30.0117H24.5654V32.3234H16.9505V18.6346V18.6351Z" fill="#2F85B7"/>
<path d="M33.1359 21.0572C32.4937 20.8002 31.503 20.6174 30.6951 20.6174C29.1722 20.6174 28.5486 21.1305 28.5486 21.9198C28.5486 22.6539 29.2641 23.2595 30.9336 24.4153C32.9335 25.8101 34.1637 27.0026 34.1637 28.6726C34.1637 30.9296 32.1814 32.5439 29.1908 32.5439C28.2735 32.5439 26.6954 32.3239 26.0351 32.1216L26.0718 29.718C26.6959 29.9565 28.1635 30.2869 29.3565 30.2869C30.7694 30.2869 31.4669 29.5714 31.4669 28.7821C31.4669 27.9928 30.7328 27.3878 29.0633 26.2495C26.6592 24.5981 25.8885 23.497 25.8885 21.9374C25.8885 20.1027 27.2833 18.3589 30.6961 18.3589C31.5402 18.3589 32.4947 18.506 33.1735 18.6898L33.1364 21.0567L33.1359 21.0572Z" fill="#E77332"/>
<path d="M50 25.4617C50 29.4986 46.7338 32.7648 42.5317 32.7648C38.3296 32.7648 35.0453 29.4986 35.0453 25.4617C35.0453 21.4248 38.293 18.1947 42.5317 18.1947C46.7705 18.1947 50 21.4428 50 25.4617ZM37.7246 25.4617C37.7246 28.1409 39.7978 30.3246 42.5317 30.3246C45.2657 30.3246 47.3213 28.1409 47.3213 25.4617C47.3213 22.7825 45.2481 20.6355 42.5317 20.6355C39.8153 20.6355 37.7246 22.8191 37.7246 25.4617Z" fill="#2F85B7"/>
</g>
<defs>
<clipPath id="clip0_2342_2">
<rect width="50" height="43.5465" fill="white"/>
</clipPath>
</defs>
</svg>
