<?xml version="1.0" encoding="UTF-8"?>
<svg id="Layer_1" xmlns="http://www.w3.org/2000/svg" viewBox="0 0 1901.33 496.11">
    <defs>
        <style>.cls-1{fill:#fff;stroke-width:0px;}</style>
    </defs>
    <polygon class="cls-1" points="435.3 407.27 435.3 460.97 132.4 460.97 132.4 215.1 90.89 215.1 161.72 152.88 161.72 77.63 182.43 77.63 182.43 134.68 283.85 45.59 417.05 162.6 468.95 162.6 283.85 0 216.69 59 216.69 43.38 127.46 43.38 127.46 137.38 0 249.35 98.15 249.35 98.15 495.22 469.55 495.22 469.55 407.27 435.3 407.27"/>
    <path class="cls-1" d="m217.23,176.46h89v27.56h-57.3v38.05h51.83v27.56h-51.83v42.42h59.04v27.56h-90.75v-163.14Z"/>
    <path class="cls-1" d="m399.4,328.88c-8.31,8.52-20.56,15.08-36.96,15.08-23.4,0-41.33-17.28-41.33-41.55,0-22.95,17.49-41.55,45.7-41.55,12.47,0,22.52,3.28,29.96,8.32v-5.47c0-21.86-8.75-28.43-26.68-28.21-8.53,0-15.74,1.1-31.05,3.93l-.87-24.93c14.87-3.06,22.96-3.93,35.42-3.93,36.08,0,52.7,16.84,52.7,44.18v84.84h-26.89v-10.71Zm-2.4-27.34c0-12.02-8.97-22.08-22.74-22.08s-22.31,10.06-22.31,22.08c0,13.12,8.75,23.84,22.31,23.84s22.74-10.5,22.74-23.84Z"/>
    <path class="cls-1" d="m514.65,215.16v26.25c-9.4-4.81-19.03-7-25.81-7-10.05,0-15.96,3.93-15.96,10.28,0,4.37,5.25,8.96,17.49,16.84,29.96,19.24,37.4,31.49,37.4,45.7,0,21.65-17.28,36.3-45.93,36.51-10.93,0-26.24-3.93-37.17-8.74v-26.25c13.34,6.78,25.81,9.84,33.02,9.84,13.34,0,19.03-5.47,19.03-11.8,0-4.17-3.5-8.97-24.06-22.1-25.81-16.84-30.84-26.02-30.84-41.55s12.91-33.67,44.61-33.45c10.93,0,20.78,2.41,28.21,5.46Z"/>
    <path class="cls-1" d="m598.18,387.71h-30.18l17.27-45.92-58.82-127.71h33.24l39.36,91.19,34.33-91.19h30.62l-65.82,173.64Z"/>
    <path class="cls-1" d="m759.23,205.33c-7.65-3.06-19.46-5.26-29.09-5.26-18.15,0-25.58,6.13-25.58,15.53,0,8.74,8.53,15.96,28.43,29.73,23.84,16.62,38.49,30.84,38.49,50.74,0,26.89-23.61,46.14-59.26,46.14-10.93,0-29.74-2.63-37.61-5.04l.44-28.64c7.43,2.85,24.93,6.78,39.14,6.78,16.84,0,25.15-8.52,25.15-17.93s-8.75-16.62-28.65-30.18c-28.64-19.67-37.83-32.8-37.83-51.38,0-21.88,16.62-42.65,57.29-42.65,10.06,0,21.44,1.76,29.52,3.95l-.44,28.21Z"/>
    <path class="cls-1" d="m824.62,239v100.6h-29.52v-100.6h-15.74v-24.93h15.74v-30.4l29.52-6.55v36.95h15.74v24.93h-15.74Z"/>
    <path class="cls-1" d="m882.13,339.6h-29.52v-125.52h28.21v26.68c4.81-9.84,17.71-26.68,35.86-26.68h4.15v33.68c-1.31-.65-4.37-1.1-6.12-1.1-19.9,0-32.59,14.88-32.59,25.38v67.57Z"/>
    <path class="cls-1" d="m1000.22,346.16c-45.05,0-74.13-29.75-74.13-69.32s28.86-69.11,68.01-69.11,67.79,29.31,67.79,69.11v7.43h-104.31c2.62,22.53,17.06,36.53,42.64,36.53,19.46,0,33.02-6.78,42.64-16.41l17.72,18.58c-13.78,12.69-31.71,23.18-60.36,23.18Zm-41.33-84.63h70.2c-4.38-17.71-16.62-28.66-34.99-28.66s-30.84,10.95-35.21,28.66Z"/>
    <path class="cls-1" d="m1145.21,346.16c-45.05,0-74.13-29.75-74.13-69.32s28.86-69.11,68.01-69.11,67.79,29.31,67.79,69.11v7.43h-104.31c2.62,22.53,17.06,36.53,42.64,36.53,19.46,0,33.02-6.78,42.64-16.41l17.72,18.58c-13.78,12.69-31.71,23.18-60.36,23.18Zm-41.33-84.63h70.2c-4.38-17.71-16.62-28.66-34.99-28.66s-30.84,10.95-35.21,28.66Z"/>
    <path class="cls-1" d="m1256.97,239v100.6h-29.52v-100.6h-15.74v-24.93h15.74v-30.4l29.52-6.55v36.95h15.74v24.93h-15.74Z"/>
    <path class="cls-1" d="m1456.31,257.81c0,48.1-38.92,87.02-89,87.02s-89.22-38.92-89.22-87.02,38.71-86.6,89.22-86.6,89,38.71,89,86.6Zm-146.3,0c0,31.93,24.71,57.94,57.3,57.94s57.08-26.02,57.08-57.94-24.72-57.52-57.08-57.52-57.3,26.03-57.3,57.52Z"/>
    <path class="cls-1" d="m1538.32,239h-28.87v100.6h-29.52v-100.6h-15.75v-24.93h15.75v-5.91c0-37.6,24.71-42.86,47.01-42.86v26.03c-9.18,0-17.49,2.18-17.49,19.02v3.72h28.87v-5.91c0-37.6,24.71-42.86,47.02-42.86v26.03c-9.19,0-17.49,2.18-17.49,19.02v3.72h15.08v24.93h-15.08v100.6h-29.52v-100.6Z"/>
    <path class="cls-1" d="m1664.49,346.16c-45.05,0-74.13-29.75-74.13-69.32s28.86-69.11,68.01-69.11,67.79,29.31,67.79,69.11v7.43h-104.31c2.62,22.53,17.05,36.53,42.64,36.53,19.46,0,33.02-6.78,42.65-16.41l17.71,18.58c-13.78,12.69-31.71,23.18-60.36,23.18Zm-41.33-84.63h70.19c-4.38-17.71-16.62-28.66-34.99-28.66s-30.84,10.95-35.21,28.66Z"/>
    <path class="cls-1" d="m1769.68,339.6h-29.52v-125.52h28.21v26.68c4.81-9.84,17.71-26.68,35.86-26.68h4.15v33.68c-1.31-.65-4.37-1.1-6.12-1.1-19.9,0-32.59,14.88-32.59,25.38v67.57Z"/>
    <path class="cls-1" d="m1888.22,215.16v26.25c-9.4-4.81-19.03-7-25.81-7-10.06,0-15.96,3.93-15.96,10.28,0,4.37,5.25,8.96,17.49,16.84,29.96,19.24,37.39,31.49,37.39,45.7,0,21.65-17.27,36.3-45.92,36.51-10.93,0-26.24-3.93-37.17-8.74v-26.25c13.34,6.78,25.81,9.84,33.02,9.84,13.34,0,19.03-5.47,19.03-11.8,0-4.17-3.5-8.97-24.06-22.1-25.81-16.84-30.84-26.02-30.84-41.55s12.91-33.67,44.61-33.45c10.93,0,20.78,2.41,28.21,5.46Z"/>
    <path class="cls-1" d="m550.11,494.9v.48h-10.41l-10.83-20.43h-10.38v20.43h-9.7v-53.33h19.33c6.3,0,11.16,1.38,14.59,4.14,3.43,2.76,5.15,6.74,5.15,11.94,0,3.52-.86,6.49-2.59,8.94-1.72,2.44-4.17,4.32-7.34,5.64l12.18,22.19Zm-31.63-27.58h9.67c3.25,0,5.73-.8,7.44-2.38s2.57-3.7,2.57-6.34c0-2.8-.82-4.99-2.47-6.56-1.65-1.56-4.17-2.34-7.57-2.34h-9.63v17.62Z"/>
    <path class="cls-1" d="m613.74,487.76v7.62h-35.78v-53.33h35.55v7.66h-25.85v14.47h22.29v7.47h-22.29v16.11h26.08Z"/>
    <path class="cls-1" d="m673.06,483.14h-20.95l-4.35,12.23h-10.15l20.56-53.33h8.73l20.65,53.33h-10.16l-4.34-12.23Zm-2.74-7.65l-7.76-21.86-7.75,21.86h15.51Z"/>
    <path class="cls-1" d="m749.05,487.76v7.62h-34.36v-53.33h9.7v45.71h24.66Z"/>
    <path class="cls-1" d="m858.01,483.93c-1.89,3.91-4.54,6.92-7.96,9.03-3.42,2.1-7.38,3.15-11.88,3.15s-8.39-1.06-11.84-3.15c-3.45-2.1-6.13-5.11-8.06-9.05-1.92-3.93-2.89-8.54-2.89-13.85v-2.68c0-5.3.96-9.91,2.87-13.84,1.91-3.93,4.58-6.96,8.01-9.07,3.44-2.11,7.38-3.17,11.82-3.17s8.46,1.05,11.9,3.14c3.43,2.1,6.1,5.12,8,9.05,1.9,3.93,2.85,8.56,2.85,13.88v2.68c0,5.32-.94,9.95-2.82,13.87Zm-10.31-30.11c-2.26-3.11-5.47-4.67-9.61-4.67-2.68,0-4.98.69-6.93,2.09-1.95,1.39-3.44,3.44-4.48,6.17-1.03,2.72-1.55,6.02-1.55,9.91v2.74c0,3.89.52,7.2,1.57,9.92,1.05,2.74,2.55,4.81,4.51,6.21,1.96,1.41,4.27,2.11,6.95,2.11,4.15,0,7.34-1.57,9.57-4.69,2.24-3.12,3.36-7.64,3.36-13.55v-2.74c0-5.89-1.13-10.39-3.39-13.5Z"/>
    <path class="cls-1" d="m900.9,449.7v15.56h21.92v7.62h-21.92v22.48h-9.7v-53.33h34.77v7.66h-25.07Z"/>
    <path class="cls-1" d="m964.15,449.7v15.56h21.92v7.62h-21.92v22.48h-9.7v-53.33h34.77v7.66h-25.07Z"/>
    <path class="cls-1" d="m1053.49,487.76v7.62h-35.78v-53.33h35.55v7.66h-25.85v14.47h22.29v7.47h-22.29v16.11h26.08Z"/>
    <path class="cls-1" d="m1123.52,494.9v.48h-10.41l-10.83-20.43h-10.38v20.43h-9.7v-53.33h19.33c6.3,0,11.16,1.38,14.59,4.14,3.43,2.76,5.15,6.74,5.15,11.94,0,3.52-.86,6.49-2.59,8.94-1.72,2.44-4.17,4.32-7.34,5.64l12.18,22.19Zm-31.63-27.58h9.67c3.25,0,5.73-.8,7.44-2.38,1.71-1.59,2.57-3.7,2.57-6.34,0-2.8-.82-4.99-2.47-6.56-1.65-1.56-4.17-2.34-7.57-2.34h-9.63v17.62Z"/>
    <path class="cls-1" d="m1155.04,466.03c-3.12-2.54-4.68-5.85-4.68-9.92,0-2.85.82-5.4,2.46-7.65,1.63-2.25,3.93-4,6.88-5.26,2.95-1.26,6.32-1.89,10.12-1.89s7.45.72,10.44,2.18c2.98,1.45,5.28,3.42,6.88,5.89,1.6,2.48,2.4,5.22,2.4,8.22h-9.67c0-2.66-.86-4.79-2.57-6.37s-4.24-2.38-7.59-2.38c-3.14,0-5.54.67-7.17,1.99-1.63,1.33-2.45,3.07-2.45,5.22,0,1.91.92,3.51,2.77,4.83,1.85,1.32,4.76,2.54,8.73,3.66,4.15,1.2,7.54,2.57,10.17,4.1,2.63,1.54,4.6,3.36,5.9,5.45,1.3,2.1,1.95,4.55,1.95,7.37,0,2.98-.8,5.57-2.4,7.76-1.6,2.2-3.87,3.89-6.8,5.08-2.93,1.18-6.36,1.78-10.29,1.78-3.65,0-7.11-.65-10.4-1.93-3.28-1.28-5.94-3.21-7.98-5.77-2.04-2.57-3.06-5.66-3.06-9.26h9.71c0,3.19,1.07,5.57,3.21,7.12,2.13,1.55,4.98,2.33,8.52,2.33,3.14,0,5.55-.64,7.23-1.91,1.67-1.27,2.51-2.98,2.51-5.13,0-1.47-.31-2.7-.94-3.68-.62-.99-1.75-1.91-3.39-2.76-1.63-.86-4.03-1.75-7.17-2.68-5.75-1.74-10.18-3.87-13.3-6.41Z"/>
    <path class="cls-1" d="m1256.56,476.33v-7.32h19.82v7.32h-19.82Z"/>
    <path class="cls-1" d="m1387.61,494.9v.48h-10.41l-10.83-20.43h-10.38v20.43h-9.7v-53.33h19.33c6.3,0,11.16,1.38,14.59,4.14,3.43,2.76,5.15,6.74,5.15,11.94,0,3.52-.86,6.49-2.59,8.94-1.72,2.44-4.17,4.32-7.34,5.64l12.18,22.19Zm-31.63-27.58h9.67c3.25,0,5.73-.8,7.44-2.38,1.71-1.59,2.57-3.7,2.57-6.34,0-2.8-.82-4.99-2.47-6.56-1.65-1.56-4.17-2.34-7.57-2.34h-9.63v17.62Z"/>
    <path class="cls-1" d="m1451.23,487.76v7.62h-35.78v-53.33h35.55v7.66h-25.85v14.47h22.29v7.47h-22.29v16.11h26.08Z"/>
    <path class="cls-1" d="m1510.56,483.14h-20.95l-4.35,12.23h-10.15l20.56-53.33h8.73l20.65,53.33h-10.16l-4.34-12.23Zm-2.74-7.65l-7.76-21.86-7.75,21.86h15.51Z"/>
    <path class="cls-1" d="m1586.54,487.76v7.62h-34.36v-53.33h9.7v45.71h24.66Z"/>
    <path class="cls-1" d="m1690.39,487.76v7.62h-35.78v-53.33h35.55v7.66h-25.85v14.47h22.29v7.47h-22.29v16.11h26.08Z"/>
    <path class="cls-1" d="m1749.71,483.14h-20.95l-4.35,12.23h-10.15l20.56-53.33h8.73l20.65,53.33h-10.16l-4.34-12.23Zm-2.74-7.65l-7.76-21.86-7.75,21.86h15.51Z"/>
    <path class="cls-1" d="m1795.02,466.03c-3.12-2.54-4.68-5.85-4.68-9.92,0-2.85.82-5.4,2.46-7.65,1.63-2.25,3.93-4,6.88-5.26,2.95-1.26,6.32-1.89,10.12-1.89s7.45.72,10.44,2.18c2.98,1.45,5.28,3.42,6.88,5.89,1.6,2.48,2.4,5.22,2.4,8.22h-9.67c0-2.66-.86-4.79-2.57-6.37-1.71-1.59-4.24-2.38-7.59-2.38-3.14,0-5.54.67-7.17,1.99-1.63,1.33-2.45,3.07-2.45,5.22,0,1.91.92,3.51,2.77,4.83,1.85,1.32,4.76,2.54,8.73,3.66,4.15,1.2,7.54,2.57,10.17,4.1,2.63,1.54,4.6,3.36,5.9,5.45,1.3,2.1,1.95,4.55,1.95,7.37,0,2.98-.8,5.57-2.4,7.76-1.6,2.2-3.87,3.89-6.8,5.08-2.93,1.18-6.36,1.78-10.29,1.78-3.65,0-7.11-.65-10.4-1.93-3.28-1.28-5.94-3.21-7.98-5.77-2.04-2.57-3.06-5.66-3.06-9.26h9.71c0,3.19,1.07,5.57,3.21,7.12,2.13,1.55,4.98,2.33,8.52,2.33,3.14,0,5.55-.64,7.23-1.91,1.67-1.27,2.51-2.98,2.51-5.13,0-1.47-.31-2.7-.94-3.68-.62-.99-1.75-1.91-3.39-2.76-1.63-.86-4.03-1.75-7.17-2.68-5.75-1.74-10.18-3.87-13.3-6.41Z"/>
    <path class="cls-1" d="m1889.22,442.05h10.75l-18.24,33.74v19.59h-9.78v-19.59l-18.24-33.74h10.75l12.37,25.09,12.4-25.09Z"/>
</svg>